<?xml version="1.0" standalone="no"?>
<!DOCTYPE svg PUBLIC "-//W3C//DTD SVG 20010904//EN"
 "http://www.w3.org/TR/2001/REC-SVG-20010904/DTD/svg10.dtd">
<svg version="1.0" xmlns="http://www.w3.org/2000/svg"
 width="288.000000pt" height="288.000000pt" viewBox="0 0 288.000000 288.000000"
 preserveAspectRatio="xMidYMid meet">

<g transform="translate(0.000000,288.000000) scale(0.100000,-0.100000)"
fill="#000000" stroke="none">
<path d="M1282 2823 c-18 -9 -40 -29 -48 -45 -15 -30 -41 -36 -75 -18 -20 11
-84 20 -155 22 -28 0 -66 -11 -111 -32 -39 -17 -76 -30 -84 -29 -8 2 -32 -1
-54 -6 -22 -5 -64 -7 -92 -6 -33 2 -53 -1 -53 -8 0 -6 11 -11 25 -11 23 0 24
-2 13 -25 -14 -31 -38 -32 -46 -2 -5 16 -8 10 -12 -27 -5 -46 -9 -52 -55 -84
-32 -23 -62 -36 -88 -37 -79 -5 -159 -129 -161 -252 -1 -41 -7 -68 -18 -80
-45 -52 -51 -81 -45 -221 l6 -132 51 -48 c46 -42 52 -53 61 -109 10 -56 13
-61 29 -51 12 8 20 30 25 67 12 99 59 201 124 272 32 35 77 100 100 144 23 44
52 91 65 105 23 26 40 59 51 97 4 14 17 25 33 29 15 3 49 13 76 21 62 20 200
21 241 3 17 -7 37 -14 45 -15 29 -3 66 -24 105 -59 42 -37 46 -39 82 -37 12 1
28 -7 36 -19 8 -12 24 -22 36 -23 11 -1 21 -5 21 -10 0 -5 9 -7 20 -4 17 4 19
1 14 -19 -4 -15 -2 -24 6 -24 6 0 9 4 6 9 -3 4 7 6 21 3 26 -5 26 -5 5 -13
-12 -5 -22 -13 -22 -19 0 -6 4 -9 9 -6 5 3 14 0 20 -8 9 -11 9 -15 -1 -20 -7
-3 -3 -4 10 -2 19 4 21 2 11 -10 -6 -8 -9 -17 -5 -21 3 -3 6 -1 6 5 0 7 4 12
10 12 5 0 6 -7 3 -17 -4 -10 -2 -14 4 -10 7 5 9 0 6 -12 -3 -10 0 -22 6 -25 5
-4 9 -12 7 -19 -1 -7 -1 -9 1 -4 11 18 22 3 32 -43 6 -28 11 -53 11 -56 0 -2
-10 2 -22 10 -13 8 -32 14 -43 12 -11 -2 -26 3 -33 11 -10 10 -18 11 -26 3 -7
-5 -16 -7 -20 -3 -13 13 -51 10 -80 -8 -21 -13 -34 -15 -42 -8 -8 7 -14 6 -19
-1 -5 -8 -10 -8 -20 0 -9 8 -15 8 -20 0 -3 -6 -11 -8 -17 -4 -12 8 -7 -38 6
-47 4 -4 12 -24 17 -45 8 -39 22 -94 42 -169 6 -22 14 -44 19 -50 16 -18 7
-39 -39 -90 -27 -29 -56 -63 -66 -76 -14 -19 -21 -22 -35 -12 -10 6 -25 7 -33
3 -8 -4 -39 -13 -69 -19 -158 -34 -221 -59 -245 -95 -12 -19 -19 -57 -24 -148
-1 -21 -64 -88 -83 -88 -7 0 -23 -3 -34 -6 -16 -4 -23 0 -27 16 -5 18 -11 21
-41 16 -47 -8 -47 10 -1 18 32 6 34 9 20 22 -18 19 -19 30 -2 41 7 5 12 30 12
65 0 46 -3 58 -17 62 -10 2 -21 -1 -25 -6 -3 -7 -1 -8 5 -4 25 15 11 -11 -23
-44 -29 -28 -35 -31 -41 -16 -5 13 -9 14 -20 5 -9 -7 -14 -7 -14 -1 0 5 16 17
35 26 33 16 49 31 23 21 -7 -3 -20 -1 -28 4 -12 8 -12 14 -1 34 14 26 12 62
-4 62 -6 0 -16 4 -22 8 -7 5 -13 4 -13 -1 0 -6 -9 -8 -20 -5 -11 3 -20 12 -20
21 0 8 -3 13 -6 9 -7 -7 -34 15 -29 23 2 3 -5 6 -16 6 -10 0 -19 -4 -19 -9 0
-4 -5 -5 -10 -2 -6 4 -8 10 -6 14 6 10 -22 51 -35 51 -5 0 -9 -7 -9 -15 0 -8
-4 -15 -9 -15 -22 0 -38 -87 -19 -106 4 -3 -5 -17 -20 -30 -24 -22 -25 -25
-10 -34 9 -6 15 -17 12 -25 -4 -8 -1 -15 6 -15 7 0 10 -7 7 -15 -4 -8 -2 -17
4 -21 6 -3 8 -13 5 -21 -3 -8 -3 -20 1 -26 4 -7 8 -32 9 -57 0 -25 3 -52 5
-60 4 -16 55 -52 78 -56 23 -4 38 -24 18 -24 -30 0 -18 -24 27 -53 24 -15 75
-51 113 -79 37 -28 127 -80 198 -115 72 -36 168 -84 215 -108 47 -25 109 -51
137 -60 62 -18 89 -50 79 -95 -5 -28 -3 -30 23 -30 36 0 43 8 29 33 -6 11 -11
64 -11 118 l-1 98 53 52 c60 59 96 111 105 156 4 17 14 34 22 37 8 3 14 11 14
17 0 7 6 20 14 28 31 36 73 218 79 344 1 9 5 17 9 17 4 0 6 8 6 18 0 9 3 26 7
36 6 14 5 17 -4 11 -10 -6 -11 -2 -6 16 3 13 3 19 -2 13 -15 -19 -41 -23 -47
-7 -4 9 -9 13 -13 9 -3 -3 -15 1 -25 11 -10 9 -18 11 -18 6 0 -6 7 -13 15 -17
8 -3 15 -11 14 -18 0 -10 -2 -10 -6 0 -2 6 -9 10 -13 7 -12 -7 -32 30 -22 40
4 5 -1 5 -10 2 -21 -8 -23 10 -4 36 12 15 14 16 20 2 3 -8 13 -15 22 -15 19 0
74 50 74 67 0 7 8 13 19 13 15 0 20 11 25 62 4 34 13 71 19 83 6 11 15 92 19
180 12 225 13 233 36 258 31 34 62 99 62 130 0 37 -32 97 -64 121 -17 12 -29
35 -37 72 -10 44 -15 52 -28 44 -13 -6 -17 -4 -18 11 -1 10 3 19 10 19 6 0 1
9 -11 20 -26 24 -27 33 -8 49 10 9 15 8 19 -3 3 -8 1 -17 -6 -20 -9 -3 -9 -5
0 -5 26 -2 23 21 -6 48 -17 16 -38 45 -46 63 -7 19 -34 53 -59 76 -70 64 -113
76 -174 45z m388 -484 c0 -6 -4 -7 -10 -4 -5 3 -10 11 -10 16 0 6 5 7 10 4 6
-3 10 -11 10 -16z m-1215 -949 c3 -5 1 -10 -4 -10 -6 0 -11 5 -11 10 0 6 2 10
4 10 3 0 8 -4 11 -10z m-75 -174 c0 -2 -7 -7 -16 -10 -8 -3 -12 -2 -9 4 6 10
25 14 25 6z m625 -41 c17 -3 47 -11 68 -17 35 -11 36 -12 21 -29 -9 -10 -29
-21 -45 -24 -25 -6 -29 -11 -24 -28 5 -18 4 -19 -5 -7 -9 13 -13 12 -27 -7
-14 -22 -44 -32 -42 -15 4 24 -3 42 -16 42 -15 0 -19 10 -15 45 4 34 20 56 38
51 9 -3 31 -8 47 -11z m-568 -17 c-3 -8 -6 -5 -6 6 -1 11 2 17 5 13 3 -3 4
-12 1 -19z m-57 8 c0 -11 -19 -15 -25 -6 -3 5 1 10 9 10 9 0 16 -2 16 -4z
m639 -133 c-6 -7 -15 -10 -20 -7 -13 8 -3 21 15 21 12 0 13 -4 5 -14z m-539
-78 c0 -8 -2 -15 -4 -15 -2 0 -6 7 -10 15 -3 8 -1 15 4 15 6 0 10 -7 10 -15z"/>
<path d="M1591 2564 c0 -11 3 -14 6 -6 3 7 2 16 -1 19 -3 4 -6 -2 -5 -13z"/>
<path d="M779 2034 c-7 -8 -26 -22 -43 -31 l-31 -16 25 -10 c14 -5 36 -12 50
-13 14 -2 43 -6 65 -9 51 -7 67 -17 60 -38 -6 -15 -21 -20 -94 -32 -38 -7 -82
-27 -99 -48 -9 -10 -8 -19 4 -36 14 -20 22 -22 64 -16 50 7 74 -6 44 -23 -14
-8 -12 -10 10 -16 26 -7 36 -25 14 -27 -7 0 11 -7 40 -15 31 -8 60 -10 70 -6
9 5 35 17 57 28 47 22 69 62 70 122 0 23 5 42 10 43 6 0 24 2 40 2 23 2 31 7
33 25 2 12 -4 29 -12 38 -9 8 -16 22 -16 29 0 9 -15 17 -37 20 -21 3 -58 10
-83 15 -25 5 -52 9 -60 9 -23 0 -49 6 -56 14 -15 14 -111 7 -125 -9z m66 -164
c-11 -5 -27 -9 -35 -9 -13 -1 -13 0 0 9 8 5 24 9 35 9 l20 0 -20 -9z m-37 -58
c2 -7 -3 -12 -12 -12 -9 0 -16 7 -16 16 0 17 22 14 28 -4z"/>
<path d="M290 1605 c-8 -9 -8 -15 -2 -15 12 0 26 19 19 26 -2 2 -10 -2 -17
-11z"/>
<path d="M1112 1510 c-19 -31 -14 -45 23 -63 19 -9 35 -12 35 -7 0 6 10 10 23
10 45 0 55 38 19 68 -25 20 -85 15 -100 -8z"/>
<path d="M233 1242 c-2 -40 0 -51 7 -37 11 25 13 95 3 95 -5 0 -9 -26 -10 -58z"/>
<path d="M720 1145 c-7 -9 -10 -18 -7 -21 3 -3 10 4 17 15 13 25 8 27 -10 6z"/>
<path d="M150 900 c-11 -11 -26 -34 -33 -52 -8 -18 -37 -58 -65 -89 l-52 -57
0 -351 0 -351 791 0 790 0 -25 33 c-27 35 -33 53 -16 42 17 -11 11 10 -10 33
-17 18 -18 22 -5 22 34 0 126 -53 158 -91 30 -34 39 -39 78 -39 l43 0 -52 52
c-28 29 -106 100 -174 158 -67 58 -144 127 -170 154 -54 55 -59 55 -142 -2
l-38 -26 -37 40 c-20 23 -50 57 -68 77 -18 21 -39 37 -48 37 -8 0 -15 4 -15 9
0 4 17 8 37 7 27 -1 38 4 41 15 2 12 -11 21 -47 33 -65 21 -70 21 -178 -10
l-93 -26 -97 90 c-54 49 -127 111 -163 138 -87 66 -233 140 -311 159 -80 19
-75 19 -99 -5z m960 -364 c0 -3 -4 -8 -10 -11 -5 -3 -10 -1 -10 4 0 6 5 11 10
11 6 0 10 -2 10 -4z m270 -266 c26 -19 47 -60 30 -60 -5 0 -23 18 -40 40 -35
44 -32 50 10 20z"/>
<path d="M1293 520 c-27 -11 -30 -37 -5 -42 24 -5 72 20 72 38 0 16 -33 18
-67 4z"/>
</g>
</svg>
