<?xml version="1.0" encoding="utf-8"?>
<!-- Generator: Adobe Illustrator 26.0.3, SVG Export Plug-In . SVG Version: 6.00 Build 0)  -->
<svg version="1.0" id="katman_1" xmlns="http://www.w3.org/2000/svg" xmlns:xlink="http://www.w3.org/1999/xlink" x="0px" y="0px"
	 viewBox="0 0 600 450" style="enable-background:new 0 0 600 450;" xml:space="preserve">
<style type="text/css">
	.st0{filter:url(#Adobe_OpacityMaskFilter);}
	.st1{fill-rule:evenodd;clip-rule:evenodd;fill:#FFFFFF;}
	.st2{mask:url(#mask-2_00000031202536978838008900000015518840658885721017_);fill-rule:evenodd;clip-rule:evenodd;fill:#29B5E8;}
</style>
<g id="HOMEPAGE">
	<g id="Snowflake-Homepage-platform-alt-3-Copy" transform="translate(-98.000000, -111.000000)">
		<g id="Components-_x2F_-Navigation-_x2F_-Main" transform="translate(98.000000, 104.000000)">
			<g id="Logo-_x2F_-Snowflake-Blue" transform="translate(0.000000, 7.000000)">
				<g>
					<defs>
						<filter id="Adobe_OpacityMaskFilter" filterUnits="userSpaceOnUse" x="81" y="175.8" width="438.7" height="99.1">
							<feColorMatrix  type="matrix" values="1 0 0 0 0  0 1 0 0 0  0 0 1 0 0  0 0 0 1 0"/>
						</filter>
					</defs>
					
						<mask maskUnits="userSpaceOnUse" x="81" y="175.8" width="438.7" height="99.1" id="mask-2_00000031202536978838008900000015518840658885721017_">
						<g class="st0">
							<polygon id="path-1_00000103987322637753253080000016584906027338375070_" class="st1" points="81,175.8 519.7,175.8 
								519.7,274.9 81,274.9 							"/>
						</g>
					</mask>
					<path id="Fill-1" class="st2" d="M352.4,206.8L352.4,206.8C352.4,206.8,352.4,206.8,352.4,206.8c-0.3-0.1-0.7-0.2-1-0.2
						c-0.5,0-1,0.2-1.4,0.4c-0.4,0.3-0.8,0.7-1,1.2v0l-9.9,26.9l-7.7-18l0,0c-0.2-0.5-0.6-0.9-1-1.2c-0.4-0.3-1-0.4-1.5-0.4
						c-0.5,0-1,0.2-1.4,0.4c-0.4,0.3-0.8,0.7-1,1.2l0,0l-7.7,18.1l-10-26.9h0c-0.2-0.5-0.5-0.9-1-1.2c-0.4-0.3-0.9-0.4-1.4-0.4
						c-0.3,0-0.7,0.1-1,0.2h0l0,0c-0.9,0.4-1.5,1.4-1.5,2.4c0,0.3,0.1,0.6,0.2,0.9h0l12.3,32.7v0c0.1,0.2,0.2,0.5,0.4,0.7
						c0.1,0.2,0.4,0.3,0.6,0.4c0,0,0.1,0.1,0.2,0.2c0.1,0.1,0.2,0.1,0.4,0.1c0.2,0.1,0.5,0.2,0.9,0.2c0.5,0,1-0.2,1.4-0.4
						c0.4-0.3,0.7-0.6,0.9-1.1l0,0l7.8-18.4l7.8,18.3h0c0.2,0.5,0.5,0.9,0.9,1.1c0.4,0.3,0.8,0.5,1.3,0.5h0.3c0.3,0,0.6-0.1,0.9-0.2
						c0.3-0.1,0.5-0.2,0.7-0.4c0.4-0.3,0.7-0.7,0.9-1.2v0l12.2-32.5c0.1-0.3,0.2-0.6,0.2-0.9C353.9,208.2,353.4,207.2,352.4,206.8
						L352.4,206.8z M296.3,225.5c0-3.8-1.5-7.3-3.9-9.8c-2.4-2.5-5.6-4.1-9.1-4.1c-3.5,0-6.7,1.5-9.1,4.1c-2.4,2.5-3.9,6-3.9,9.8
						c0,3.8,1.5,7.3,3.9,9.8c2.4,2.5,5.6,4,9.1,4c3.5,0,6.7-1.5,9.1-4C294.8,232.8,296.3,229.3,296.3,225.5L296.3,225.5z
						 M296.2,212.2c3.3,3.5,5.3,8.2,5.3,13.3c0,5.1-2,9.9-5.3,13.3c-3.3,3.4-7.8,5.6-12.9,5.6c-5,0-9.6-2.2-12.9-5.6
						c-3.3-3.5-5.3-8.2-5.3-13.3c0-5.1,2-9.9,5.3-13.3c3.3-3.4,7.8-5.6,12.9-5.6C288.4,206.5,292.9,208.7,296.2,212.2L296.2,212.2z
						 M244.5,206.6c-4.1,0-7.8,1.6-10.6,4.1v-1.5c0-0.7-0.3-1.3-0.7-1.8c-0.4-0.5-1.1-0.8-1.8-0.8c-0.7,0-1.4,0.3-1.9,0.8
						c-0.5,0.5-0.7,1.1-0.7,1.8v33.4l0.1,0.1l0,0c0,0.1,0.1,0.2,0.2,0.3c0.4,0.6,0.9,1.1,1.7,1.3l0.1,0h0.6c0.4,0,0.8-0.1,1.1-0.2
						c0.3-0.1,0.6-0.4,0.8-0.7l0,0c0,0,0-0.1,0.1-0.1c0,0,0,0,0,0c0.1-0.2,0.3-0.4,0.3-0.5c0.1-0.2,0.1-0.4,0.2-0.5l0-0.1v-20.1
						c0.1-2.9,1.3-5.5,3.2-7.4c1.9-1.9,4.5-3.1,7.4-3.1c2.9,0,5.5,1.2,7.4,3.1c1.9,1.9,3.1,4.5,3.1,7.3v19.7c0,0.7,0.3,1.4,0.8,1.8
						c0.5,0.5,1.1,0.7,1.8,0.7c0.7,0,1.3-0.3,1.8-0.7c0.5-0.5,0.8-1.1,0.8-1.8v-19.7C260.2,213.6,253.2,206.6,244.5,206.6
						L244.5,206.6z M500.7,221.8c-1.5-5.9-6.7-10.2-12.8-10.2c-6.2,0-11.4,4.1-13,10.2H500.7z M506.4,224.3v0.3
						c0,0.7-0.3,1.4-0.8,1.8c-0.5,0.4-1.1,0.6-1.8,0.7h-29.2c0.7,7.1,6.4,12.3,13.2,12.3h1.7c2.2,0,4.4-0.8,6.4-2
						c1.9-1.3,3.6-3,4.8-5c0.2-0.4,0.6-0.7,1-0.9c0.4-0.2,0.8-0.3,1.2-0.3c0.5,0,0.9,0.1,1.3,0.4l0,0l0,0c0.7,0.5,1.2,1.3,1.2,2.2
						c0,0.5-0.1,0.9-0.4,1.3l0,0l0,0c-1.6,2.6-3.9,4.9-6.5,6.6c-2.6,1.7-5.7,2.8-9,2.8h-1.7c-5.1,0-9.7-2.2-13.1-5.6
						c-3.3-3.4-5.4-8.1-5.4-13.3c0-5.2,2.1-10,5.4-13.4c3.4-3.4,8-5.6,13.2-5.6c4.9,0,9.4,1.9,12.6,5.1
						C503.9,214.8,506,219.3,506.4,224.3L506.4,224.3z M386.8,191c-0.7,0-1.4,0.3-1.8,0.8c-0.5,0.5-0.8,1.1-0.8,1.8v48.3
						c0,0.7,0.3,1.4,0.8,1.8c0.5,0.5,1.1,0.8,1.8,0.8c1.5,0,2.7-1.2,2.7-2.6v-48.3C389.4,192.1,388.2,191,386.8,191L386.8,191z
						 M216.8,224.6c-2.1-1-4.5-1.7-6.9-2.5c-2.2-0.7-4.4-1.4-6-2.2c-0.8-0.4-1.4-0.9-1.8-1.4c-0.4-0.5-0.6-1-0.6-1.7
						c0-0.9,0.3-1.7,0.8-2.4c0.7-1,1.9-1.8,3.2-2.3c1.3-0.5,2.7-0.8,3.7-0.8c2.9,0,4.8,1,6.2,2c0.7,0.5,1.3,1,1.9,1.4
						c0.3,0.2,0.6,0.4,0.9,0.6c0.3,0.1,0.6,0.3,1,0.3c0.2,0,0.5,0,0.7-0.1c0.2-0.1,0.4-0.2,0.6-0.4c0.2-0.2,0.4-0.4,0.5-0.6
						c0.1-0.2,0.2-0.5,0.2-0.7c0-0.5-0.1-0.9-0.4-1.3c-0.4-0.7-1-1.4-1.8-2.1c-1.1-1-2.7-2-4.3-2.7c-1.6-0.7-3.4-1.2-5-1.2
						c-3.9,0-7.1,0.9-9.4,2.5c-1.2,0.8-2.3,1.7-3.1,3c-0.8,1.3-1.2,2.8-1.3,4.9c0,0.1,0,0.2,0,0.3c0,2,0.6,3.6,1.6,4.9
						c1.5,1.9,3.8,3.1,6,3.9c2.2,0.8,4.4,1.3,5.8,1.8c2,0.6,4.1,1.4,5.6,2.3c0.8,0.5,1.4,1,1.8,1.6c0.4,0.6,0.6,1.2,0.6,1.9v0.1
						c0,1.1-0.3,2-0.9,2.7c-0.8,1.1-2.2,1.9-3.6,2.4c-1.4,0.5-2.9,0.7-3.9,0.7c-3.4,0-5.6-0.8-7.3-1.6c-0.8-0.4-1.5-0.8-2.1-1.1
						c-0.3-0.2-0.6-0.3-0.9-0.4c-0.3-0.1-0.6-0.2-0.9-0.2c-0.2,0-0.4,0-0.7,0.1c-0.2,0.1-0.4,0.2-0.6,0.4c-0.2,0.2-0.4,0.5-0.6,0.7
						c-0.1,0.3-0.2,0.6-0.2,0.9c0,0.5,0.2,1,0.5,1.4c0.4,0.6,1,1.1,1.8,1.7c0.8,0.5,1.8,1.1,2.9,1.6c2.4,1.1,5.6,1.7,8,1.8h0
						c3.7,0,6.9-0.8,9.6-2.8v0h0c2.6-2,4.3-4.9,4.3-8.2c0-1.8-0.4-3.4-1.2-4.6C220.7,226.8,218.9,225.5,216.8,224.6L216.8,224.6z
						 M426,225.5c0-3.9-1.5-7.3-3.8-9.8c-2.4-2.5-5.6-4-9.1-4c-3.5,0-6.7,1.5-9.1,4c-2.4,2.5-3.9,6-3.9,9.8c0,3.9,1.5,7.3,3.9,9.8
						c2.4,2.5,5.6,4,9.1,4c3.5,0,6.8-1.5,9.1-4C424.5,232.8,426,229.4,426,225.5L426,225.5z M430.4,207.3c0.5,0.5,0.8,1.1,0.8,1.8
						v32.7c0,0.7-0.3,1.4-0.8,1.8c-0.5,0.5-1.1,0.8-1.8,0.8c-0.7,0-1.4-0.3-1.8-0.8c-0.5-0.5-0.8-1.1-0.8-1.8v-3.2
						c-3.3,3.5-7.9,5.8-13,5.8c-5.1,0-9.6-2.2-12.9-5.6c-3.3-3.4-5.3-8.2-5.3-13.3s2-9.9,5.3-13.3c3.3-3.4,7.8-5.6,12.9-5.6
						c5.1,0,9.7,2.2,13,5.7v-3.1c0-0.7,0.3-1.4,0.8-1.8c0.5-0.5,1.1-0.7,1.8-0.7C429.3,206.5,429.9,206.8,430.4,207.3L430.4,207.3z
						 M467.1,210.6c0.5-0.5,0.8-1.2,0.8-1.9c0-0.7-0.3-1.3-0.8-1.8h0c0,0,0,0,0,0c0,0,0,0,0,0h0c-0.5-0.5-1.1-0.8-1.8-0.8
						c-0.7,0-1.3,0.3-1.8,0.8l-20.3,19.6v-33c0-1.4-1.2-2.6-2.7-2.6c-0.7,0-1.4,0.3-1.8,0.8c-0.5,0.5-0.8,1.1-0.8,1.8v48.3
						c0,0.7,0.3,1.4,0.8,1.8c0.5,0.5,1.1,0.8,1.8,0.8c1.5,0,2.7-1.2,2.7-2.6v-8l6.6-6.6l13.5,16.1c0.3,0.4,0.6,0.6,0.9,0.8
						c0.4,0.1,0.8,0.2,1.1,0.2c0.5,0,1.1-0.1,1.7-0.5l0,0l0,0c0.5-0.5,0.8-1.2,0.8-1.9c0-0.6-0.2-1.2-0.6-1.7v0l-13.7-16.5
						L467.1,210.6L467.1,210.6z M376,191.1h-0.6c-0.1,0-0.2,0-0.2,0c-0.1,0-0.1,0-0.2,0c-1.5,0-3,0.2-4.3,0.6
						c-1.3,0.4-2.6,1.2-3.5,2.3l0,0l0,0v0c-1,1.1-1.6,2.4-2,3.9c-0.4,1.5-0.6,3.2-0.6,5.1v3.7h-4.1c-1.4,0-2.6,1.1-2.6,2.5
						c0,0.7,0.3,1.4,0.8,1.9c0.5,0.5,1.1,0.8,1.8,0.8h4.1v30l0,0.1c0,0.7,0.3,1.4,0.8,1.8c0.5,0.5,1.1,0.7,1.9,0.7
						c1.4,0,2.5-1.1,2.5-2.5v-30.1h4.4c0.7,0,1.4-0.3,1.8-0.8c0.5-0.5,0.8-1.1,0.8-1.9v-0.1c0-1.4-1.2-2.5-2.6-2.5h-4.4V203
						c0-1.6,0.2-2.8,0.4-3.7c0.2-0.9,0.6-1.5,0.9-1.8c0.3-0.3,0.7-0.6,1.3-0.8c0.6-0.2,1.5-0.3,2.6-0.3h0.1c0.1,0,0.1,0,0.2,0
						c0.1,0,0.2,0,0.2,0h0.3h0.2c1.5,0,2.6-1.2,2.6-2.6C378.7,192.3,377.5,191.1,376,191.1L376,191.1z M114.2,227.2
						c0.2-0.7,0.3-1.3,0.3-2c0-0.5-0.1-1-0.2-1.5c-0.4-1.5-1.4-2.8-2.9-3.7L90.3,208c-3-1.7-6.8-0.7-8.5,2.3
						c-1.7,2.9-0.7,6.7,2.3,8.4l11.8,6.8l-11.8,6.7c-3,1.7-4,5.5-2.3,8.4c1.7,2.9,5.5,3.9,8.5,2.2l21.1-12.1
						C112.8,229.9,113.8,228.6,114.2,227.2L114.2,227.2z M120,238.5c-1.2-0.1-2.5,0.1-3.6,0.8l-21.1,12.1c-3,1.7-4,5.5-2.3,8.4
						c1.7,2.9,5.5,4,8.5,2.2l11.8-6.8v13.5c0,3.4,2.8,6.2,6.2,6.2c3.4,0,6.2-2.8,6.2-6.2v-24.1C125.7,241.4,123.2,238.7,120,238.5
						L120,238.5z M141.6,212.2c1.2,0.1,2.5-0.2,3.6-0.8l21.1-12.1c3-1.7,4-5.5,2.3-8.4c-1.7-2.9-5.5-4-8.5-2.2l-11.8,6.8V182
						c0-3.4-2.8-6.2-6.2-6.2c-3.4,0-6.2,2.8-6.2,6.2v24.1C135.8,209.3,138.4,212,141.6,212.2L141.6,212.2z M95.3,199.4l21.1,12.1
						c1.1,0.6,2.4,0.9,3.6,0.8c3.2-0.2,5.7-2.9,5.7-6.1V182c0-3.4-2.8-6.2-6.2-6.2c-3.4,0-6.2,2.8-6.2,6.2v13.5l-11.8-6.8
						c-3-1.7-6.8-0.7-8.5,2.2C91.3,193.9,92.3,197.7,95.3,199.4L95.3,199.4z M134.9,225.3c0-0.4-0.2-0.8-0.5-1.1l-2.5-2.5
						c-0.3-0.2-0.7-0.5-1.1-0.5h-0.1c-0.4,0-0.8,0.2-1.1,0.5l-2.5,2.5c-0.3,0.3-0.4,0.7-0.4,1.1v0.1c0,0.3,0.2,0.8,0.4,1.1l2.5,2.5
						c0.3,0.2,0.7,0.5,1.1,0.5h0.1c0.4,0,0.8-0.2,1.1-0.5l2.5-2.5C134.7,226.3,134.9,225.8,134.9,225.3L134.9,225.3z M141.9,227.7
						l-8.8,8.7c-0.3,0.3-0.7,0.5-1.1,0.5h-0.6h-1.3h-0.6c-0.4,0-0.8-0.2-1.1-0.5l-8.8-8.7c-0.3-0.2-0.5-0.7-0.5-1.1V226v-1.3v-0.6
						c0-0.4,0.2-0.8,0.5-1.1l8.8-8.7c0.3-0.3,0.7-0.5,1.1-0.5h0.6h1.3h0.6c0.4,0,0.9,0.2,1.1,0.5l8.8,8.7c0.3,0.2,0.5,0.7,0.5,1.1
						v0.6v1.3v0.6C142.4,227,142.2,227.5,141.9,227.7L141.9,227.7z M166.3,251.4l-21.1-12.1c-1.1-0.7-2.4-0.9-3.6-0.8
						c-3.2,0.2-5.7,2.9-5.7,6.1v24.1c0,3.4,2.8,6.2,6.2,6.2c3.4,0,6.2-2.8,6.2-6.2v-13.5l11.8,6.8c3,1.7,6.8,0.7,8.5-2.2
						C170.3,256.8,169.3,253.1,166.3,251.4L166.3,251.4z M177.4,218.6l-11.8,6.8l11.8,6.7c3,1.7,4,5.5,2.3,8.4
						c-1.7,2.9-5.5,3.9-8.5,2.2l-21.1-12.1c-1.4-0.8-2.4-2.1-2.8-3.5c-0.2-0.7-0.3-1.3-0.3-2c0-0.5,0.1-1,0.2-1.5
						c0.4-1.5,1.4-2.8,2.9-3.7l21.1-12.1c3-1.7,6.8-0.7,8.5,2.3C181.4,213.2,180.4,216.9,177.4,218.6L177.4,218.6z M519.7,206.6
						c0,3.4-2.3,6.2-6.1,6.2c-3.8,0-6.1-2.9-6.1-6.2c0-3.4,2.3-6.2,6.1-6.2C517.4,200.4,519.7,203.2,519.7,206.6L519.7,206.6z
						 M518.5,206.6c0-2.9-1.9-5.1-4.9-5.1c-2.9,0-4.8,2.1-4.8,5.1c0,2.9,1.9,5.1,4.8,5.1C516.6,211.6,518.5,209.5,518.5,206.6
						L518.5,206.6z M511.2,203.8h2.6c1.4,0,2.4,0.8,2.4,2c0,0.7-0.4,1.3-0.9,1.7l1,1.5v0.3h-1.5l-1-1.4h-1.2v1.4h-1.4V203.8z
						 M513.8,205.1h-1.2v1.4h1.2c0.5,0,0.9-0.2,0.9-0.7C514.7,205.3,514.4,205.1,513.8,205.1L513.8,205.1z"/>
				</g>
			</g>
		</g>
	</g>
</g>
</svg>
